<svg id="loupe" xmlns="http://www.w3.org/2000/svg" width="512" height="512" viewBox="0 0 512 512">
  <g id="Сгруппировать_166" data-name="Сгруппировать 166">
    <g id="Сгруппировать_165" data-name="Сгруппировать 165">
      <path id="Контур_6393" data-name="Контур 6393" d="M310,190a10,10,0,1,0,10,10A10,10,0,0,0,310,190Z" fill="#c28562"/>
    </g>
  </g>
  <g id="Сгруппировать_168" data-name="Сгруппировать 168">
    <g id="Сгруппировать_167" data-name="Сгруппировать 167">
      <path id="Контур_6394" data-name="Контур 6394" d="M500.281,443.719,366.8,310.239A198.2,198.2,0,0,0,400,200C400,89.72,310.28,0,200,0S0,89.72,0,200,89.72,400,200,400a198.214,198.214,0,0,0,110.239-33.2L347.134,403.7l.016.016,96.568,96.568a40,40,0,1,0,56.563-56.562ZM305.536,345.727s0,0,0,0A178.459,178.459,0,0,1,200,380c-99.252,0-180-80.748-180-180S100.748,20,200,20s180,80.748,180,180a178.458,178.458,0,0,1-34.272,105.535A180.872,180.872,0,0,1,305.536,345.727Zm20.98,9.066a200.675,200.675,0,0,0,28.277-28.277l28.371,28.371a242.731,242.731,0,0,1-28.277,28.277ZM486.139,486.139a19.985,19.985,0,0,1-28.278,0l-88.8-88.8a262.774,262.774,0,0,0,28.277-28.277l88.8,88.8a19.982,19.982,0,0,1,0,28.274Z" fill="#c28562"/>
    </g>
  </g>
  <g id="Сгруппировать_170" data-name="Сгруппировать 170">
    <g id="Сгруппировать_169" data-name="Сгруппировать 169">
      <path id="Контур_6395" data-name="Контур 6395" d="M200,40C111.775,40,40,111.775,40,200s71.775,160,160,160,160-71.775,160-160S288.225,40,200,40Zm0,300c-77.2,0-140-62.8-140-140S122.8,60,200,60s140,62.8,140,140S277.2,340,200,340Z" fill="#c28562"/>
    </g>
  </g>
  <g id="Сгруппировать_172" data-name="Сгруппировать 172">
    <g id="Сгруппировать_171" data-name="Сгруппировать 171">
      <path id="Контур_6396" data-name="Контур 6396" d="M312.065,157.073A120.189,120.189,0,0,0,200,80a10,10,0,0,0,0,20,100.683,100.683,0,0,1,93.4,64.247,10,10,0,1,0,18.669-7.174Z" fill="#c28562"/>
    </g>
  </g>
</svg>
